<svg xmlns="http://www.w3.org/2000/svg" viewBox="0 0 1600 480">
  <defs>
    <linearGradient id="sky" x1="0" y1="0" x2="0" y2="1">
      <stop offset="0" stop-color="#F8FBFF"/>
      <stop offset="1" stop-color="#EAF4FF"/>
    </linearGradient>
    <linearGradient id="m1" x1="0" y1="0" x2="1" y2="0">
      <stop offset="0" stop-color="#D6EAFB"/>
      <stop offset="1" stop-color="#B8D9F4"/>
    </linearGradient>
    <linearGradient id="m2" x1="0" y1="0" x2="1" y2="0">
      <stop offset="0" stop-color="#B9DCCB"/>
      <stop offset="1" stop-color="#93C9B0"/>
    </linearGradient>
  </defs>
  <rect width="1600" height="480" rx="36" fill="url(#sky)"/>
  <circle cx="1160" cy="122" r="72" fill="#FFF0C8"/>
  <path d="M580 285c110-85 180-98 270-36 78 54 131 38 194-6 75-52 135-46 231 22 80 56 161 55 325 19v196H580Z" fill="url(#m1)"/>
  <path d="M500 326c135-75 222-78 324-24 74 39 133 43 205 5 90-48 172-37 287 25 77 41 149 47 284 18v130H500Z" fill="url(#m2)" opacity=".82"/>
  <path d="M1170 166h18v130h-18zM1265 138h18v158h-18zM1350 150h18v146h-18z" fill="#355A87"/>
  <path d="M1179 166l-32 58h64zM1274 138l-32 70h64zM1359 150l-30 66h60z" fill="none" stroke="#355A87" stroke-width="6"/>
  <rect x="1130" y="280" width="290" height="22" rx="6" fill="#355A87"/>
  <rect x="1160" y="302" width="18" height="95" fill="#355A87"/>
  <rect x="1265" y="302" width="18" height="95" fill="#355A87"/>
  <rect x="1370" y="302" width="18" height="95" fill="#355A87"/>
  <path d="M1110 368c130 12 260 8 410-10" stroke="#7FB7E2" stroke-width="5" opacity=".45" fill="none"/>
</svg>